<?xml version="1.0" standalone="no"?>
<!DOCTYPE svg PUBLIC "-//W3C//DTD SVG 20010904//EN"
 "http://www.w3.org/TR/2001/REC-SVG-20010904/DTD/svg10.dtd">
<svg version="1.0" xmlns="http://www.w3.org/2000/svg"
 width="113.000000pt" height="113.000000pt" viewBox="0 0 113.000000 113.000000"
 preserveAspectRatio="xMidYMid meet">
<metadata>
Created by potrace 1.11, written by Peter Selinger 2001-2013
</metadata>
<g transform="translate(0.000000,113.000000) scale(0.100000,-0.100000)"
fill="#000000" stroke="none">
<path d="M425 1085 c-167 -40 -287 -131 -356 -267 -44 -87 -59 -167 -55 -288
6 -158 48 -262 150 -363 103 -103 214 -144 393 -146 191 -2 302 37 413 149
226 226 201 635 -50 821 -126 94 -333 133 -495 94z m289 -229 c65 -32 122 -94
148 -162 19 -48 35 -154 24 -154 -4 0 -25 10 -46 23 -38 21 -40 24 -40 75 l0
52 -50 0 c-47 0 -50 -2 -50 -26 l0 -26 -32 20 c-18 10 -51 29 -74 41 l-40 23
-149 -91 c-81 -50 -151 -88 -155 -86 -10 6 -3 66 15 131 22 77 88 151 165 186
51 23 67 26 152 23 60 -1 88 -8 132 -29z m53 -424 l82 -45 -17 -30 c-40 -68
-144 -126 -238 -131 -124 -7 -233 41 -289 128 -16 24 -17 29 -4 37 8 4 68 42
134 82 l120 74 65 -34 c36 -20 102 -56 147 -81z"/>
</g>
</svg>
